<svg id="Capa_1" enable-background="new 0 0 512 512" height="512" viewBox="0 0 512 512" width="512" xmlns="http://www.w3.org/2000/svg"><g><g><g><path d="m417.456 126.544c-43.126-43.126-100.466-66.877-161.456-66.877l-10.667 15 10.667 298.666 198.333 20.643v.69h30v-106.666c0-60.99-23.751-118.33-66.877-161.456z" fill="#ff3a3b"/><path d="m94.544 126.544c-43.126 43.126-66.877 100.466-66.877 161.456v106.667h30v-.69l198.333-20.644v-313.666c-60.99 0-118.33 23.751-161.456 66.877z" fill="#ff5645"/></g><g><path d="m256 89.667-10.667 17 10.667 266.666 168.333 20.643h30v-105.976c0-109.361-88.972-198.333-198.333-198.333z" fill="#fd8c02"/><path d="m57.667 288v105.977h30l168.333-20.644v-283.667c-109.361.001-198.333 88.973-198.333 198.334z" fill="#fdb902"/></g><g><path d="m256 119.667-10.667 19 10.667 234.666 138.333 20.643h30v-105.976c0-92.819-75.514-168.333-168.333-168.333z" fill="#fdb902"/><path d="m87.667 288v105.977h30l138.333-20.644v-253.666c-92.82 0-168.333 75.514-168.333 168.333z" fill="#fdd902"/></g><g><path d="m256 149.667-10.667 10.333 10.667 213.333 108.333 20.643h30v-105.976c0-76.277-62.056-138.333-138.333-138.333z" fill="#0dca71"/><path d="m117.667 288v105.977h30l108.333-20.644v-223.666c-76.277 0-138.333 62.056-138.333 138.333z" fill="#04db7b"/></g><g><path d="m256 179.667-10.667 12.333 10.667 181.333 78.333 20.643h30v-105.976c0-59.735-48.598-108.333-108.333-108.333z" fill="#8cc6fd"/><path d="m147.667 288v105.977h30l78.333-20.644v-193.666c-59.735 0-108.333 48.598-108.333 108.333z" fill="#a4d2fe"/></g><g><path d="m256 209.667-10.667 89 10.667 95.309h78.333v-105.976c0-43.193-35.14-78.333-78.333-78.333z" fill="#7f66ff"/><path d="m177.667 288v105.977h78.333v-184.31c-43.193 0-78.333 35.14-78.333 78.333z" fill="#a079ff"/></g></g><path d="m193.96 326.807c-13.572-13.659-31.558-21.398-50.643-21.791-29.604-.616-56.248 16.477-68.375 42.651h-22.568c-28.879 0-52.374 23.495-52.374 52.374v52.293h141.773c19.878 0 38.511-7.797 52.466-21.955 13.953-14.156 21.479-32.904 21.193-52.792-.275-19.088-7.9-37.122-21.472-50.78z" fill="#ddeefe"/><path d="m459.626 347.667h-22.568c-12.126-26.174-38.771-43.263-68.375-42.651-19.085.393-37.071 8.132-50.643 21.791-13.571 13.658-21.196 31.692-21.471 50.779-.287 19.888 7.24 38.637 21.193 52.793 13.955 14.158 32.588 21.955 52.466 21.955h141.772v-52.293c0-28.879-23.495-52.374-52.374-52.374z" fill="#c4e2fe"/></g></svg>